<svg xmlns="http://www.w3.org/2000/svg" viewBox="0 0 512 640" x="0px" y="0px"><path d="M416,56V32H312a24.028,24.028,0,0,0-24,24V208h8a8,8,0,0,1,5.657,2.343l64,64A8,8,0,0,1,368,280v8h88a24.028,24.028,0,0,0,24-24V96H456A40.045,40.045,0,0,1,416,56ZM328,80h48a8,8,0,0,1,0,16H328a8,8,0,0,1,0-16Zm0,48h16a8,8,0,0,1,0,16H328a8,8,0,0,1,0-16Zm0,64a8,8,0,0,1,0-16h64a8,8,0,0,1,0,16Zm112,48H376a8,8,0,0,1,0-16h64a8,8,0,0,1,0,16Zm0-48H424a8,8,0,0,1,0-16h16a8,8,0,0,1,0,16Zm0-48H376a8,8,0,0,1,0-16h64a8,8,0,0,1,0,16Zm-8-88V43.313L468.687,80H456A24.028,24.028,0,0,1,432,56ZM224,208V96H200a40.045,40.045,0,0,1-40-40V32H56A24.028,24.028,0,0,0,32,56V264a24.028,24.028,0,0,0,24,24h88V248a40.045,40.045,0,0,1,40-40ZM72,80h48a8,8,0,0,1,0,16H72a8,8,0,0,1,0-16Zm0,48H88a8,8,0,0,1,0,16H72a8,8,0,0,1,0-16Zm32,112H72a8,8,0,0,1,0-16h32a8,8,0,0,1,0,16Zm32-48H72a8,8,0,0,1,0-16h64a8,8,0,0,1,0,16Zm-16-48a8,8,0,0,1,0-16h64a8,8,0,0,1,0,16Zm40,40a8,8,0,0,1,8-8h16a8,8,0,0,1,0,16H168A8,8,0,0,1,160,184ZM176,56V43.313L212.687,80H200A24.028,24.028,0,0,1,176,56ZM288,248V224H184a24.028,24.028,0,0,0-24,24V456a24.028,24.028,0,0,0,24,24H328a24.028,24.028,0,0,0,24-24V288H328A40.045,40.045,0,0,1,288,248ZM224,360a8,8,0,1,1,8-8A8,8,0,0,1,224,360Zm32,0a8,8,0,1,1,8-8A8,8,0,0,1,256,360Zm32,0a8,8,0,1,1,8-8A8,8,0,0,1,288,360Zm40-88a24.028,24.028,0,0,1-24-24V235.313L340.687,272ZM64,344v40h40a8,8,0,0,1,0,16H56a8,8,0,0,1-8-8V344a8,8,0,0,1,16,0Zm344,56a8,8,0,0,1,0-16h40V344a8,8,0,0,1,16,0v48a8,8,0,0,1-8,8Z"/><text x="0" y="527" fill="#000000" font-size="5px" font-weight="bold" font-family="'Helvetica Neue', Helvetica, Arial-Unicode, Arial, Sans-serif">Created by iconixar</text><text x="0" y="532" fill="#000000" font-size="5px" font-weight="bold" font-family="'Helvetica Neue', Helvetica, Arial-Unicode, Arial, Sans-serif">from the Noun Project</text></svg>